<svg width="96" height="96" viewBox="0 0 96 96" fill="none" xmlns="http://www.w3.org/2000/svg">
<path d="M53.9596 21.92C58.3596 21.92 61.9596 18.32 61.9596 13.92C61.9596 9.51998 58.3596 5.91998 53.9596 5.91998C49.5596 5.91998 45.9596 9.51998 45.9596 13.92C45.9596 18.32 49.5596 21.92 53.9596 21.92ZM39.5596 77.52L43.5596 59.92L51.9596 67.92V91.92H59.9596V61.92L51.5596 53.92L53.9596 41.92C59.1596 47.92 67.1596 51.92 75.9596 51.92V43.92C68.3596 43.92 61.9596 39.92 58.7596 34.32L54.7596 27.92C53.1596 25.52 50.7596 23.92 47.9596 23.92C46.7596 23.92 45.9596 24.32 44.7596 24.32L23.9596 33.12V51.92H31.9596V38.32L39.1596 35.52L32.7596 67.92L13.1596 63.92L11.5596 71.92L39.5596 77.52Z" fill="black"/>
</svg>
