<svg width="1371" height="422" viewBox="0 0 1371 422" fill="none" xmlns="http://www.w3.org/2000/svg">
<path d="M246.4 354.6C228.267 354.6 212 351.4 197.6 345C183.2 338.333 171.733 329.4 163.2 318.2C154.933 307 150.4 294.6 149.6 281L206 281C207.067 289.533 211.2 296.6 218.4 302.2C225.867 307.8 235.067 310.6 246 310.6C256.667 310.6 264.933 308.467 270.8 304.2C276.933 299.933 280 294.467 280 287.8C280 280.6 276.267 275.267 268.8 271.8C261.6 268.067 250 264.067 234 259.8C217.467 255.8 203.867 251.667 193.2 247.4C182.8 243.133 173.733 236.6 166 227.8C158.533 219 154.8 207.133 154.8 192.2C154.8 179.933 158.267 168.733 165.2 158.6C172.4 148.467 182.533 140.467 195.6 134.6C208.933 128.733 224.533 125.8 242.4 125.8C268.8 125.8 289.867 132.467 305.6 145.8C321.333 158.867 330 176.6 331.6 199L278 199C277.2 190.2 273.467 183.267 266.8 178.2C260.4 172.867 251.733 170.2 240.8 170.2C230.667 170.2 222.8 172.067 217.2 175.8C211.867 179.533 209.2 184.733 209.2 191.4C209.2 198.867 212.933 204.6 220.4 208.6C227.867 212.333 239.467 216.2 255.2 220.2C271.2 224.2 284.4 228.333 294.8 232.6C305.2 236.867 314.133 243.533 321.6 252.6C329.333 261.4 333.333 273.133 333.6 287.8C333.6 300.6 330 312.067 322.8 322.2C315.867 332.333 305.733 340.333 292.4 346.2C279.333 351.8 264 354.6 246.4 354.6ZM357.169 240.2C357.169 217.267 361.835 197.267 371.169 180.2C380.502 162.867 393.435 149.533 409.969 140.2C426.502 130.6 445.435 125.8 466.769 125.8C494.235 125.8 516.902 132.733 534.769 146.6C552.902 160.2 565.035 179.4 571.169 204.2L510.769 204.2C507.569 194.6 502.102 187.133 494.369 181.8C486.902 176.2 477.569 173.4 466.369 173.4C450.369 173.4 437.702 179.267 428.369 191C419.035 202.467 414.369 218.867 414.369 240.2C414.369 261.267 419.035 277.667 428.369 289.4C437.702 300.867 450.369 306.6 466.369 306.6C489.035 306.6 503.835 296.467 510.769 276.2L571.169 276.2C565.035 300.2 552.902 319.267 534.769 333.4C516.635 347.533 493.969 354.6 466.769 354.6C445.435 354.6 426.502 349.933 409.969 340.6C393.435 331 380.502 317.667 371.169 300.6C361.835 283.267 357.169 263.133 357.169 240.2ZM702.594 354.6C681.26 354.6 662.06 349.933 644.994 340.6C627.927 331 614.46 317.533 604.594 300.2C594.994 282.867 590.194 262.867 590.194 240.2C590.194 217.533 595.127 197.533 604.994 180.2C615.127 162.867 628.86 149.533 646.194 140.2C663.527 130.6 682.86 125.8 704.194 125.8C725.527 125.8 744.86 130.6 762.194 140.2C779.527 149.533 793.127 162.867 802.994 180.2C813.127 197.533 818.194 217.533 818.194 240.2C818.194 262.867 812.994 282.867 802.594 300.2C792.46 317.533 778.594 331 760.994 340.6C743.66 349.933 724.194 354.6 702.594 354.6ZM702.594 305.8C712.727 305.8 722.194 303.4 730.994 298.6C740.06 293.533 747.26 286.067 752.594 276.2C757.927 266.333 760.594 254.333 760.594 240.2C760.594 219.133 754.994 203 743.794 191.8C732.86 180.333 719.394 174.6 703.394 174.6C687.394 174.6 673.927 180.333 662.994 191.8C652.327 203 646.994 219.133 646.994 240.2C646.994 261.267 652.194 277.533 662.594 289C673.26 300.2 686.594 305.8 702.594 305.8ZM1060.47 129.4L1060.47 351L1004.07 351L1004.07 323C996.872 332.6 987.405 340.2 975.672 345.8C964.205 351.133 951.672 353.8 938.072 353.8C920.739 353.8 905.405 350.2 892.072 343C878.739 335.533 868.205 324.733 860.472 310.6C853.005 296.2 849.272 279.133 849.272 259.4L849.272 129.4L905.272 129.4L905.272 251.4C905.272 269 909.672 282.6 918.472 292.2C927.272 301.533 939.272 306.2 954.472 306.2C969.939 306.2 982.072 301.533 990.872 292.2C999.672 282.6 1004.07 269 1004.07 251.4L1004.07 129.4L1060.47 129.4ZM1172.93 175.4L1172.93 282.6C1172.93 290.067 1174.66 295.533 1178.13 299C1181.86 302.2 1187.99 303.8 1196.53 303.8L1222.53 303.8L1222.53 351L1187.33 351C1140.13 351 1116.53 328.067 1116.53 282.2L1116.53 175.4L1090.12 175.4L1090.12 129.4L1116.53 129.4L1116.53 74.6L1172.93 74.6L1172.93 129.4L1222.53 129.4L1222.53 175.4L1172.93 175.4Z" fill="black"/>
<path d="M790.192 160.137L732.17 270.927L674.081 206.604L790.192 160.137Z" fill="#E86D52"/>
<path d="M616.538 316.962L674.56 206.171L732.65 270.494L616.538 316.962Z" fill="#E86D52"/>
<circle cx="703.256" cy="239.256" r="16.5818" transform="rotate(37.6182 703.256 239.256)" fill="white"/>
</svg>
